# xmcd
#
# Track frame offsets:
#	150
#	10885
#	21942
#	33880
#	45769
#	57806
#	67463
#	79711
#	89174
#	101072
#	111404
#	124775
#	134324
#	147269
#	159752
#	170265
#	180676
#	191525
#	202249
#	213968
#	223456
#	237227
#	248557
#	260946
#	273999
#	284336
#	294603
#	304526
#	314630
#
# Disc length: 4308 seconds
#
# Revision: 0
# Processed by: cddbd v1.5.2PL0 Copyright (c) Steve Scherf et al.
# Submitted via: EasyCDDAExtractor 2010.6.0.0
#
DISCID=bc10d21d
DTITLE=Various Artist - Ragged But Right Cd 1
DYEAR=1900
DGENRE=
TTITLE0=Jones George - No Money In This Deal
TTITLE1=Jones George - You're In My Heart
TTITLE2=Jones George - Play It Cool Man
TTITLE3=Jones George and Sonny Burns - Wrong About You
TTITLE4=Jones George - Let  Him Know
TTITLE5=Jones George - You All Goodnight
TTITLE6=Jones George and Sonny Burns - Heartbroken Me
TTITLE7=Jones George - Hold Everything
TTITLE8=Jones George - What's Wrong With You
TTITLE9=Jones George - Why Baby Why
TTITLE10=Jones George - Seasons Of My Heart
TTITLE11=Jones George - Still Hurtin'
TTITLE12=Jones George - What Am I Worth
TTITLE13=Jones George - Your Heart
TTITLE14=Jones George - Ragged But Right
TTITLE15=Jones George - Rock It
TTITLE16=Jones George - How Come It
TTITLE17=Jones George - It's Ok
TTITLE18=Jones George - You Gotta Be My Baby
TTITLE19=Jones George - Boat Of Life
TTITLE20=Jones George - Taggin' Along
TTITLE21=Jones George - Gonna Come Get You
TTITLE22=Jones George - Just One More
TTITLE23=Jones George and Jeanette Hicks - Yearning
TTITLE24=Jones George - Uh Uh No
TTITLE25=Jones George - Don't Stop The Music
TTITLE26=Jones George - Too Much Water
TTITLE27=Jones George - All I Want To Do
TTITLE28=Jones George - Opry Rag
EXTD=
EXTT0=
EXTT1=
EXTT2=
EXTT3=
EXTT4=
EXTT5=
EXTT6=
EXTT7=
EXTT8=
EXTT9=
EXTT10=
EXTT11=
EXTT12=
EXTT13=
EXTT14=
EXTT15=
EXTT16=
EXTT17=
EXTT18=
EXTT19=
EXTT20=
EXTT21=
EXTT22=
EXTT23=
EXTT24=
EXTT25=
EXTT26=
EXTT27=
EXTT28=
PLAYORDER=
